<svg width="114" height="19" viewBox="0 0 114 19" fill="none" xmlns="http://www.w3.org/2000/svg">
<path d="M8.15681 0.0393651C6.74463 0.175005 5.43064 0.633377 4.14939 1.42851C3.52747 1.81672 3.15338 2.11606 2.64369 2.63524C0.978996 4.34243 0.160679 6.19463 0.0110437 8.59405C-0.0590978 9.6745 0.212116 11.3349 0.618937 12.3312C1.05849 13.4069 1.62897 14.2909 2.49873 15.2264C3.66775 16.4986 5.3605 17.4294 7.23562 17.8363L7.82013 17.9626L10.4528 17.9813L13.0807 18V15.638V13.2713H10.8409C9.03124 13.2713 8.52622 13.2573 8.18954 13.2011C7.33382 13.0515 6.49212 12.5837 5.85617 11.9055C5.44467 11.4706 5.3605 11.3396 5.12202 10.8157C4.27565 8.93549 4.88822 6.73718 6.57629 5.60997C7.3572 5.08612 8.0212 4.885 8.96577 4.88967C9.65316 4.88967 10.0647 4.98322 10.6772 5.26853C11.1963 5.51175 11.5797 5.79238 11.9632 6.1993C12.3653 6.62025 12.543 6.88218 12.7394 7.33587C13.0994 8.16842 13.0948 8.15439 13.1182 10.8251L13.1322 13.2245H15.5684H18L17.9766 10.638C17.9579 8.24326 17.9486 8.01875 17.855 7.51829C17.4856 5.54449 16.7702 4.13664 15.4235 2.73814C14.8156 2.10203 14.5116 1.85414 13.8523 1.44254C12.0801 0.334033 10.1208 -0.147725 8.15681 0.0393651Z" fill="#121212"/>
<path d="M29.2367 14.692C28.4154 14.692 27.69 14.5533 27.0607 14.276C26.4314 13.988 25.9354 13.5827 25.5727 13.06C25.21 12.5267 25.0234 11.8813 25.0127 11.124H27.1727C27.194 11.6467 27.3807 12.0893 27.7327 12.452C28.0954 12.804 28.5914 12.98 29.2207 12.98C29.7647 12.98 30.1967 12.852 30.5167 12.596C30.8367 12.3293 30.9967 11.9773 30.9967 11.54C30.9967 11.0813 30.8527 10.724 30.5647 10.468C30.2874 10.212 29.914 10.004 29.4447 9.844C28.9754 9.684 28.474 9.51333 27.9407 9.332C27.0767 9.03333 26.4154 8.64933 25.9567 8.18C25.5087 7.71067 25.2847 7.08667 25.2847 6.308C25.274 5.64667 25.4287 5.08133 25.7487 4.612C26.0794 4.132 26.5274 3.764 27.0927 3.508C27.658 3.24133 28.3087 3.108 29.0447 3.108C29.7914 3.108 30.4474 3.24133 31.0127 3.508C31.5887 3.77467 32.0367 4.148 32.3567 4.628C32.6874 5.108 32.8634 5.67867 32.8847 6.34H30.6927C30.682 5.94533 30.5274 5.59867 30.2287 5.3C29.9407 4.99067 29.5354 4.836 29.0127 4.836C28.5647 4.82533 28.186 4.93733 27.8767 5.172C27.578 5.396 27.4287 5.72667 27.4287 6.164C27.4287 6.53733 27.546 6.836 27.7807 7.06C28.0154 7.27333 28.3354 7.45467 28.7407 7.604C29.146 7.75333 29.61 7.91333 30.1327 8.084C30.6874 8.276 31.194 8.5 31.6527 8.756C32.1114 9.012 32.4794 9.35333 32.7567 9.78C33.034 10.196 33.1727 10.7347 33.1727 11.396C33.1727 11.9827 33.0234 12.5267 32.7247 13.028C32.426 13.5293 31.9834 13.9347 31.3967 14.244C30.81 14.5427 30.09 14.692 29.2367 14.692ZM35.3756 5.332C35.0022 5.332 34.6929 5.22 34.4476 4.996C34.2129 4.772 34.0956 4.48933 34.0956 4.148C34.0956 3.80667 34.2129 3.52933 34.4476 3.316C34.6929 3.092 35.0022 2.98 35.3756 2.98C35.7489 2.98 36.0529 3.092 36.2876 3.316C36.5329 3.52933 36.6556 3.80667 36.6556 4.148C36.6556 4.48933 36.5329 4.772 36.2876 4.996C36.0529 5.22 35.7489 5.332 35.3756 5.332ZM34.3516 14.5V6.564H36.3996V14.5H34.3516ZM37.8972 14.5V6.564H39.7052L39.8812 7.636C40.1372 7.252 40.4732 6.948 40.8892 6.724C41.3159 6.48933 41.8065 6.372 42.3612 6.372C43.5879 6.372 44.4572 6.84667 44.9692 7.796C45.2572 7.35867 45.6412 7.012 46.1212 6.756C46.6119 6.5 47.1452 6.372 47.7212 6.372C48.7559 6.372 49.5505 6.68133 50.1052 7.3C50.6599 7.91867 50.9372 8.82533 50.9372 10.02V14.5H48.8892V10.212C48.8892 9.52933 48.7559 9.00667 48.4892 8.644C48.2332 8.28133 47.8332 8.1 47.2892 8.1C46.7345 8.1 46.2865 8.30267 45.9452 8.708C45.6145 9.11333 45.4492 9.67867 45.4492 10.404V14.5H43.4012V10.212C43.4012 9.52933 43.2679 9.00667 43.0012 8.644C42.7345 8.28133 42.3239 8.1 41.7692 8.1C41.2252 8.1 40.7825 8.30267 40.4412 8.708C40.1105 9.11333 39.9452 9.67867 39.9452 10.404V14.5H37.8972ZM52.2416 18.02V6.564H54.0656L54.2896 7.7C54.5456 7.348 54.8816 7.03867 55.2976 6.772C55.7242 6.50533 56.2736 6.372 56.9456 6.372C57.6922 6.372 58.3589 6.55333 58.9456 6.916C59.5322 7.27867 59.9962 7.77467 60.3376 8.404C60.6789 9.03333 60.8496 9.748 60.8496 10.548C60.8496 11.348 60.6789 12.0627 60.3376 12.692C59.9962 13.3107 59.5322 13.8013 58.9456 14.164C58.3589 14.516 57.6922 14.692 56.9456 14.692C56.3482 14.692 55.8256 14.58 55.3776 14.356C54.9296 14.132 54.5669 13.8173 54.2896 13.412V18.02H52.2416ZM56.5136 12.9C57.1642 12.9 57.7029 12.6813 58.1296 12.244C58.5562 11.8067 58.7696 11.2413 58.7696 10.548C58.7696 9.85467 58.5562 9.284 58.1296 8.836C57.7029 8.388 57.1642 8.164 56.5136 8.164C55.8522 8.164 55.3082 8.388 54.8816 8.836C54.4656 9.27333 54.2576 9.83867 54.2576 10.532C54.2576 11.2253 54.4656 11.796 54.8816 12.244C55.3082 12.6813 55.8522 12.9 56.5136 12.9ZM62.0391 14.5V2.98H64.0871V14.5H62.0391ZM69.3957 14.692C68.5957 14.692 67.8864 14.5213 67.2677 14.18C66.649 13.8387 66.1637 13.3587 65.8117 12.74C65.4597 12.1213 65.2837 11.4067 65.2837 10.596C65.2837 9.77467 65.4544 9.044 65.7957 8.404C66.1477 7.764 66.6277 7.268 67.2357 6.916C67.8544 6.55333 68.5797 6.372 69.4117 6.372C70.1904 6.372 70.8784 6.54267 71.4757 6.884C72.073 7.22533 72.537 7.69467 72.8677 8.292C73.209 8.87867 73.3797 9.53467 73.3797 10.26C73.3797 10.3773 73.3744 10.5 73.3637 10.628C73.3637 10.756 73.3584 10.8893 73.3477 11.028H67.3157C67.3584 11.6467 67.5717 12.132 67.9557 12.484C68.3504 12.836 68.825 13.012 69.3797 13.012C69.7957 13.012 70.1424 12.9213 70.4197 12.74C70.7077 12.548 70.921 12.3027 71.0597 12.004H73.1397C72.9904 12.5053 72.7397 12.964 72.3877 13.38C72.0464 13.7853 71.6197 14.1053 71.1077 14.34C70.6064 14.5747 70.0357 14.692 69.3957 14.692ZM69.4117 8.036C68.9104 8.036 68.4677 8.18 68.0837 8.468C67.6997 8.74533 67.4544 9.172 67.3477 9.748H71.2997C71.2677 9.22533 71.0757 8.80933 70.7237 8.5C70.3717 8.19067 69.9344 8.036 69.4117 8.036ZM81.5067 14.692C80.6854 14.692 79.96 14.5533 79.3307 14.276C78.7014 13.988 78.2054 13.5827 77.8427 13.06C77.48 12.5267 77.2934 11.8813 77.2827 11.124H79.4427C79.464 11.6467 79.6507 12.0893 80.0027 12.452C80.3654 12.804 80.8614 12.98 81.4907 12.98C82.0347 12.98 82.4667 12.852 82.7867 12.596C83.1067 12.3293 83.2667 11.9773 83.2667 11.54C83.2667 11.0813 83.1227 10.724 82.8347 10.468C82.5574 10.212 82.184 10.004 81.7147 9.844C81.2454 9.684 80.744 9.51333 80.2107 9.332C79.3467 9.03333 78.6854 8.64933 78.2267 8.18C77.7787 7.71067 77.5547 7.08667 77.5547 6.308C77.544 5.64667 77.6987 5.08133 78.0187 4.612C78.3494 4.132 78.7974 3.764 79.3627 3.508C79.928 3.24133 80.5787 3.108 81.3147 3.108C82.0614 3.108 82.7174 3.24133 83.2827 3.508C83.8587 3.77467 84.3067 4.148 84.6267 4.628C84.9574 5.108 85.1334 5.67867 85.1547 6.34H82.9627C82.952 5.94533 82.7974 5.59867 82.4987 5.3C82.2107 4.99067 81.8054 4.836 81.2827 4.836C80.8347 4.82533 80.456 4.93733 80.1467 5.172C79.848 5.396 79.6987 5.72667 79.6987 6.164C79.6987 6.53733 79.816 6.836 80.0507 7.06C80.2854 7.27333 80.6054 7.45467 81.0107 7.604C81.416 7.75333 81.88 7.91333 82.4027 8.084C82.9574 8.276 83.464 8.5 83.9227 8.756C84.3814 9.012 84.7494 9.35333 85.0267 9.78C85.304 10.196 85.4427 10.7347 85.4427 11.396C85.4427 11.9827 85.2934 12.5267 84.9947 13.028C84.696 13.5293 84.2534 13.9347 83.6667 14.244C83.08 14.5427 82.36 14.692 81.5067 14.692ZM89.5176 14.692C88.5256 14.692 87.7576 14.3827 87.2136 13.764C86.6802 13.1453 86.4136 12.2387 86.4136 11.044V6.564H88.4456V10.852C88.4456 11.5347 88.5842 12.0573 88.8616 12.42C89.1389 12.7827 89.5762 12.964 90.1736 12.964C90.7389 12.964 91.2029 12.7613 91.5656 12.356C91.9389 11.9507 92.1256 11.3853 92.1256 10.66V6.564H94.1736V14.5H92.3656L92.2056 13.156C91.9602 13.6253 91.6029 13.9987 91.1336 14.276C90.6749 14.5533 90.1362 14.692 89.5176 14.692ZM96.7399 5.332C96.3666 5.332 96.0573 5.22 95.8119 4.996C95.5773 4.772 95.4599 4.48933 95.4599 4.148C95.4599 3.80667 95.5773 3.52933 95.8119 3.316C96.0573 3.092 96.3666 2.98 96.7399 2.98C97.1133 2.98 97.4173 3.092 97.6519 3.316C97.8973 3.52933 98.0199 3.80667 98.0199 4.148C98.0199 4.48933 97.8973 4.772 97.6519 4.996C97.4173 5.22 97.1133 5.332 96.7399 5.332ZM95.7159 14.5V6.564H97.7639V14.5H95.7159ZM102.798 14.5C101.966 14.5 101.299 14.2973 100.798 13.892C100.296 13.4867 100.046 12.7667 100.046 11.732V8.276H98.6856V6.564H100.046L100.286 4.436H102.094V6.564H104.238V8.276H102.094V11.748C102.094 12.132 102.174 12.3987 102.334 12.548C102.504 12.6867 102.792 12.756 103.198 12.756H104.19V14.5H102.798ZM109.009 14.692C108.209 14.692 107.499 14.5213 106.881 14.18C106.262 13.8387 105.777 13.3587 105.425 12.74C105.073 12.1213 104.897 11.4067 104.897 10.596C104.897 9.77467 105.067 9.044 105.409 8.404C105.761 7.764 106.241 7.268 106.849 6.916C107.467 6.55333 108.193 6.372 109.025 6.372C109.803 6.372 110.491 6.54267 111.089 6.884C111.686 7.22533 112.15 7.69467 112.481 8.292C112.822 8.87867 112.993 9.53467 112.993 10.26C112.993 10.3773 112.987 10.5 112.977 10.628C112.977 10.756 112.971 10.8893 112.961 11.028H106.929C106.971 11.6467 107.185 12.132 107.569 12.484C107.963 12.836 108.438 13.012 108.993 13.012C109.409 13.012 109.755 12.9213 110.033 12.74C110.321 12.548 110.534 12.3027 110.673 12.004H112.753C112.603 12.5053 112.353 12.964 112.001 13.38C111.659 13.7853 111.233 14.1053 110.721 14.34C110.219 14.5747 109.649 14.692 109.009 14.692ZM109.025 8.036C108.523 8.036 108.081 8.18 107.697 8.468C107.313 8.74533 107.067 9.172 106.961 9.748H110.913C110.881 9.22533 110.689 8.80933 110.337 8.5C109.985 8.19067 109.547 8.036 109.025 8.036Z" fill="#0D0D0D"/>
</svg>
