<svg width="18" height="18" viewBox="0 0 18 18" fill="none" xmlns="http://www.w3.org/2000/svg">
<path d="M8.15681 0.0393667C6.74463 0.175007 5.43064 0.633377 4.14939 1.42851C3.52747 1.81672 3.15338 2.11607 2.64369 2.63524C0.978996 4.34244 0.160679 6.19463 0.0110437 8.59405C-0.0590978 9.6745 0.212116 11.3349 0.618937 12.3312C1.05849 13.4069 1.62897 14.2909 2.49873 15.2264C3.66775 16.4986 5.3605 17.4294 7.23562 17.8363L7.82013 17.9626L10.4528 17.9813L13.0807 18V15.638V13.2713H10.8409C9.03124 13.2713 8.52622 13.2573 8.18954 13.2011C7.33382 13.0515 6.49212 12.5837 5.85617 11.9055C5.44467 11.4706 5.3605 11.3396 5.12202 10.8157C4.27565 8.93549 4.88822 6.73719 6.57629 5.60997C7.3572 5.08612 8.0212 4.885 8.96577 4.88967C9.65316 4.88967 10.0647 4.98322 10.6772 5.26853C11.1963 5.51175 11.5797 5.79238 11.9632 6.1993C12.3653 6.62025 12.543 6.88218 12.7394 7.33587C13.0994 8.16842 13.0948 8.15439 13.1182 10.8251L13.1322 13.2245H15.5684H18L17.9766 10.638C17.9579 8.24326 17.9486 8.01875 17.855 7.51829C17.4856 5.54449 16.7702 4.13664 15.4235 2.73814C14.8156 2.10203 14.5116 1.85414 13.8523 1.44254C12.0801 0.334033 10.1208 -0.147723 8.15681 0.0393667Z" fill="white"/>
</svg>
